<svg xmlns="http://www.w3.org/2000/svg" fill="#52595f" width="20" height="20" viewBox="0 0 20 20" class=" inline">
                <path d="M10 0C7.283 0 6.944.013 5.877.06 4.813.11 4.087.278 3.45.525a4.897 4.897 0 0 0-1.772 1.153A4.88 4.88 0 0 0 .525 3.45C.277 4.088.109 4.812.06 5.877.01 6.944 0 7.283 0 10c0 2.717.012 3.056.06 4.123.05 1.064.217 1.79.465 2.427a4.904 4.904 0 0 0 1.153 1.772 4.89 4.89 0 0 0 1.772 1.153c.638.247 1.363.416 2.427.465 1.067.05 1.406.06 4.123.06 2.717 0 3.056-.013 4.123-.06 1.064-.05 1.79-.218 2.427-.465a4.915 4.915 0 0 0 1.772-1.153c.555-.556.899-1.113 1.153-1.772.247-.638.416-1.363.465-2.427.05-1.067.06-1.406.06-4.123 0-2.717-.013-3.056-.06-4.123-.05-1.064-.218-1.79-.465-2.427a4.908 4.908 0 0 0-1.153-1.772A4.872 4.872 0 0 0 16.55.525C15.913.278 15.187.109 14.123.06 13.056.01 12.717 0 10 0zm0 1.8c2.67 0 2.987.013 4.042.06.975.045 1.504.207 1.856.345.468.18.8.398 1.151.747.35.35.566.682.747 1.15.136.352.3.881.344 1.856.047 1.055.058 1.372.058 4.042s-.012 2.987-.061 4.042c-.051.975-.214 1.504-.351 1.855-.187.469-.4.8-.75 1.152a3.12 3.12 0 0 1-1.15.747c-.35.137-.887.3-1.862.344-1.062.047-1.374.058-4.049.058-2.676 0-2.988-.012-4.05-.061-.975-.051-1.512-.214-1.862-.351-.475-.187-.8-.4-1.15-.75a3.036 3.036 0 0 1-.75-1.15c-.137-.35-.299-.887-.35-1.862-.037-1.05-.05-1.374-.05-4.037s.013-2.988.05-4.05c.051-.975.213-1.512.35-1.862.175-.475.4-.8.75-1.15.35-.35.675-.575 1.15-.75.35-.138.875-.3 1.85-.35 1.063-.038 1.375-.05 4.05-.05L10 1.8zm0 3.065a5.135 5.135 0 1 0 0 10.27 5.135 5.135 0 0 0 0-10.27zm0 8.468a3.332 3.332 0 1 1 0-6.666 3.332 3.332 0 1 1 0 6.666zm6.538-8.67a1.2 1.2 0 0 1-2.4 0 1.2 1.2 0 0 1 2.4 0z"></path>
              
              </svg>